<?xml version="1.0" encoding="UTF-8"?>
<svg width="32px" height="32px" viewBox="0 0 32 32" version="1.1" xmlns="http://www.w3.org/2000/svg" xmlns:xlink="http://www.w3.org/1999/xlink">
    <!-- Generator: Sketch 50.2 (55047) - http://www.bohemiancoding.com/sketch -->
    <title>Group 14 Copy</title>
    <desc>Created with Sketch.</desc>
    <defs></defs>
    <g id="Profile" stroke="none" stroke-width="1" fill="none" fill-rule="evenodd">
        <g id="My-profile-v2" transform="translate(-498.000000, -527.000000)">
            <g id="Group-10" transform="translate(463.000000, 217.000000)">
                <g id="Group-4" transform="translate(35.000000, 310.000000)">
                    <g id="Group-14-Copy">
                        <rect id="Rectangle-4" fill="#0077B5" x="0" y="0" width="32" height="32" rx="5"></rect>
                        <g id="linkedin-3ac34e49c1df758c" transform="translate(7.000000, 7.000000)" fill="#FBFBFB" fill-rule="nonzero">
                            <path d="M3.78346438,16 L3.78346438,5.2048268 L0.210786347,5.2048268 L0.210786347,16 L3.78346438,16 Z M1.99758737,3.73004427 C3.24344286,3.73004427 4.01892823,2.9011011 4.01892823,1.86519813 C3.99571641,0.805935194 3.24349065,0 2.02122934,0 C0.799159212,0 0,0.805951194 0,1.86519813 C0,2.9011491 0.775294202,3.73004427 1.97426402,3.73004427 L1.99747585,3.73004427 L1.99758737,3.73004427 Z M5.76093059,16 L9.33360863,16 L9.33360863,9.97144603 C9.33360863,9.64880635 9.35682045,9.32650267 9.45116531,9.0958629 C9.70944271,8.45123955 10.2972898,7.78359222 11.2842147,7.78359222 C12.5770196,7.78359222 13.0942117,8.77354323 13.0942117,10.2247418 L13.0942117,15.99992 L16.6666667,16 L16.6666667,9.81007019 C16.6666667,6.49421751 14.9040971,4.95138705 12.5534892,4.95138705 C10.6261745,4.95138705 9.77995441,6.03333797 9.3098392,6.77024923 L9.33368828,6.77024923 L9.33368828,5.2046028 L5.76101025,5.2046028 C5.80789591,6.21756178 5.76101025,15.999776 5.76101025,15.999776 L5.76093059,16 Z" id="Shape"></path>
                        </g>
                    </g>
                </g>
            </g>
        </g>
    </g>
</svg>