<?xml version="1.0" encoding="UTF-8"?>
<svg width="22px" height="22px" viewBox="0 0 22 22" version="1.1" xmlns="http://www.w3.org/2000/svg" xmlns:xlink="http://www.w3.org/1999/xlink">
    <!-- Generator: Sketch 50.2 (55047) - http://www.bohemiancoding.com/sketch -->
    <title>Shape</title>
    <desc>Created with Sketch.</desc>
    <defs></defs>
    <g id="Profile" stroke="none" stroke-width="1" fill="none" fill-rule="evenodd">
        <g id="My-account" transform="translate(-1307.000000, -27.000000)" fill="#06205C">
            <g id="Group-16">
                <g id="Group-13">
                    <g id="bell" transform="translate(1307.000000, 24.000000)">
                        <path d="M19.7554308,12.9823978 L16.8346483,17.9218111 L16.5413234,22.6948427 L2.62745763,14.8529101 L6.71493987,12.2186541 L9.6364557,7.27850774 C11.2497425,4.55116583 14.8231729,3.61590964 17.6163591,5.19177234 C20.4110119,6.76616912 21.3687177,10.2543229 19.7554308,12.9823978 Z M7.75844314,21.8614679 C6.71054,21.2707026 6.35121701,19.963103 6.95619958,18.9398917 L10.7510902,21.0786672 C10.1461077,22.1018786 8.80634628,22.4515002 7.75844314,21.8614679 Z M18.3474714,3.9560028 C14.8547054,1.98800682 10.3881007,3.15561114 8.37149214,6.56607121 L5.45070963,11.5054846 L0,15.0192919 L5.69196934,18.2274552 C4.68366506,19.9323187 5.28131451,22.11214 7.02806418,23.0957715 C8.77481385,24.0808689 11.0077495,23.4967003 12.0160538,21.7918367 L17.7072898,25 L18.0996119,18.6342477 L21.0203944,13.6948343 C23.0370029,10.2851072 21.8402374,5.92546469 18.3474714,3.9560028 Z" id="Shape"></path>
                    </g>
                </g>
            </g>
        </g>
    </g>
</svg>