
Open SVG

Paste markup
Demo
Contribute
About
Powered by the incredible SVGO


3.83k → 2.06k 53.78%
<svg width="165" height="163" viewBox="0 0 165 163" xmlns="http://www.w3.org/2000/svg">
  <g fill="none" fill-rule="evenodd">
    <path d="M52.503 100.626c-.798 0-1.415.3-1.853.899-.437.6-.656 1.434-.656 2.505 0 2.229.836 3.343 2.509 3.343.702 0 1.552-.175 2.55-.526v1.777c-.82.342-1.737.513-2.748.513-1.454 0-2.566-.441-3.336-1.323-.77-.882-1.156-2.148-1.156-3.797 0-1.04.19-1.95.568-2.731.378-.782.922-1.381 1.63-1.798.709-.417 1.54-.626 2.492-.626.97 0 1.946.235 2.926.704l-.684 1.723c-.374-.178-.75-.333-1.128-.465a3.365 3.365 0 0 0-1.114-.198zm13.747 3.363c0 1.655-.41 2.926-1.23 3.815-.82.888-1.997 1.333-3.528 1.333s-2.707-.445-3.527-1.333c-.82-.889-1.23-2.165-1.23-3.828 0-1.664.41-2.934 1.233-3.811.823-.878 2.002-1.316 3.538-1.316s2.71.442 3.524 1.326c.813.884 1.22 2.155 1.22 3.814zm-7.294 0c0 1.117.212 1.958.636 2.523.424.565 1.057.847 1.9.847 1.691 0 2.536-1.123 2.536-3.37 0-2.251-.84-3.377-2.522-3.377-.843 0-1.479.284-1.907.851-.429.568-.643 1.41-.643 2.526zM72.553 109l-2.407-7.84h-.061c.087 1.594.13 2.658.13 3.192V109H68.32v-9.994h2.885l2.365 7.642h.041l2.51-7.642h2.884V109H77.03v-4.73c0-.224.004-.481.01-.773.007-.292.038-1.066.093-2.324h-.062L74.494 109h-1.941zm11.088-5.291h.697c.652 0 1.14-.129 1.463-.386.323-.258.485-.633.485-1.125 0-.497-.135-.863-.407-1.1-.27-.237-.696-.356-1.275-.356h-.963v2.967zm4.785-1.586c0 1.076-.336 1.898-1.009 2.468-.672.57-1.628.854-2.867.854h-.91V109h-2.119v-9.994h3.193c1.212 0 2.134.26 2.765.783.631.521.947 1.3.947 2.334zM90.312 109v-9.994h2.12v8.244h4.053V109h-6.172zm13.666 0h-5.756v-9.994h5.756v1.736h-3.637v2.195h3.384v1.736h-3.384v2.577h3.637V109zm5.94 0h-2.12v-8.23h-2.713v-1.764h7.547v1.764h-2.714V109zm10.008 0h-5.756v-9.994h5.756v1.736h-3.637v2.195h3.384v1.736h-3.384v2.577h3.637V109z" fill="#9B9B9B"/>
    <path d="M64.654 60.6v4.41L53.734 90h-7.392l10.542-23.856H47.14v4.788h-6.048V60.6h23.562zm15.624 29.904c-2.436 0-4.606-.602-6.51-1.806-1.904-1.204-3.395-2.947-4.473-5.229-1.078-2.282-1.617-5.005-1.617-8.169 0-3.164.539-5.887 1.617-8.169 1.078-2.282 2.569-4.025 4.473-5.229 1.904-1.204 4.074-1.806 6.51-1.806s4.606.602 6.51 1.806c1.904 1.204 3.395 2.947 4.473 5.229 1.078 2.282 1.617 5.005 1.617 8.169 0 3.164-.539 5.887-1.617 8.169-1.078 2.282-2.569 4.025-4.473 5.229-1.904 1.204-4.074 1.806-6.51 1.806zm0-5.754c1.792 0 3.199-.77 4.221-2.31 1.022-1.54 1.533-3.92 1.533-7.14 0-3.22-.511-5.6-1.533-7.14-1.022-1.54-2.429-2.31-4.221-2.31-1.764 0-3.157.77-4.179 2.31-1.022 1.54-1.533 3.92-1.533 7.14 0 3.22.511 5.6 1.533 7.14 1.022 1.54 2.415 2.31 4.179 2.31zM103 76.476c-2.156 0-3.913-.735-5.271-2.205-1.358-1.47-2.037-3.437-2.037-5.901s.679-4.431 2.037-5.901c1.358-1.47 3.115-2.205 5.271-2.205 2.156 0 3.906.735 5.25 2.205 1.344 1.47 2.016 3.437 2.016 5.901s-.672 4.431-2.016 5.901c-1.344 1.47-3.094 2.205-5.25 2.205zM120.514 60.6h4.998L105.436 90h-4.998l20.076-29.4zM103 73.032c.952 0 1.701-.392 2.247-1.176.546-.784.819-1.946.819-3.486 0-1.54-.273-2.702-.819-3.486-.546-.784-1.295-1.176-2.247-1.176-.924 0-1.666.399-2.226 1.197s-.84 1.953-.84 3.465c0 1.512.28 2.667.84 3.465.56.798 1.302 1.197 2.226 1.197zm19.95 17.304c-1.4 0-2.653-.329-3.759-.987-1.106-.658-1.967-1.603-2.583-2.835-.616-1.232-.924-2.66-.924-4.284 0-1.624.308-3.052.924-4.284.616-1.232 1.477-2.177 2.583-2.835 1.106-.658 2.359-.987 3.759-.987 2.156 0 3.913.735 5.271 2.205 1.358 1.47 2.037 3.437 2.037 5.901s-.679 4.431-2.037 5.901c-1.358 1.47-3.115 2.205-5.271 2.205zm0-3.444c.952 0 1.701-.399 2.247-1.197.546-.798.819-1.953.819-3.465 0-1.512-.273-2.667-.819-3.465-.546-.798-1.295-1.197-2.247-1.197-.924 0-1.666.392-2.226 1.176-.56.784-.84 1.946-.84 3.486 0 1.54.28 2.702.84 3.486.56.784 1.302 1.176 2.226 1.176z" fill="#31C09A"/>
    <path d="M27.31 37.8c-9.345 11.843-14.62 26.379-14.89 41.796-.67 38.378 29.9 70.033 68.277 70.702 38.378.67 70.032-29.898 70.702-68.276.295-16.884-5.454-32.909-16.027-45.623-1.339-3.553-.962-6.157 1.132-7.814 2.022-1.6 4.72-1.553 8.095.142 12.045 14.484 19.153 33.191 18.799 53.504-.786 45.005-37.906 80.851-82.91 80.066C35.483 161.51-.363 124.39.422 79.387c.324-18.533 6.809-35.513 17.469-49.02 3.423-2.293 6.25-2.68 8.481-1.164 2.626 1.784 2.94 4.65.939 8.597z" fill="#F0EFEF" fill-rule="nonzero"/>
    <path d="M28.137 124.507c-9.345-11.843-14.62-26.379-14.89-41.796-.67-38.378 29.899-70.033 68.277-70.702 38.378-.67 70.032 29.898 70.702 68.276.295 16.884-5.455 32.909-16.027 45.623-1.34 3.553-.962 6.157 1.131 7.814 2.022 1.6 4.72 1.553 8.095-.142 12.045-14.484 19.154-33.191 18.8-53.504C163.438 35.07 126.318-.775 81.314.01 36.31.796.462 37.916 1.248 82.92c.323 18.533 6.808 35.513 17.468 49.02 3.424 2.293 6.251 2.68 8.482 1.164 2.626-1.784 2.939-4.65.938-8.597z" fill="#31C09A" fill-rule="nonzero"/>
  </g>
</svg>