<?xml version="1.0" encoding="UTF-8"?>
<svg width="34px" height="14px" viewBox="0 0 34 14" version="1.1" xmlns="http://www.w3.org/2000/svg" xmlns:xlink="http://www.w3.org/1999/xlink">
    <!-- Generator: Sketch 50.2 (55047) - http://www.bohemiancoding.com/sketch -->
    <title>Page 1</title>
    <desc>Created with Sketch.</desc>
    <defs></defs>
    <g id="Profile" stroke="none" stroke-width="1" fill="none" fill-rule="evenodd">
        <g id="My-profile-v2---edit" transform="translate(-755.000000, -872.000000)" fill="#FFFFFF">
            <g id="Group-14" transform="translate(520.000000, 855.000000)">
                <g id="Group-27" transform="translate(228.000000, 0.000000)">
                    <g id="Group-23">
                        <g id="Group-26">
                            <path d="M35.7704168,30.2725372 L32.6657059,30.2725372 L32.6657059,17.2500086 L36.0291427,17.2500086 L36.0291427,20.247262 C36.0291427,20.247262 36.1508301,20.1365273 36.4734613,19.879785 C36.8090288,19.6126073 37.222904,19.4733266 37.6465245,19.4060578 C37.8649754,19.3713886 38.0918781,19.3691463 38.3171421,19.4060578 C38.8311442,19.4903162 39.3376433,19.6129523 39.7058965,19.9812918 C40.0742359,20.3496312 40.2811304,20.8491447 40.2811304,21.3700462 C40.2811304,23.3368546 40.2811304,26.0012657 40.2811304,27.966884 C40.2811304,29.0497382 39.3905959,30.1932722 38.3205055,30.3587792 C38.0096032,30.4068591 37.6862821,30.4014948 37.3813305,30.3587792 C37.2038445,30.3339242 36.6287831,30.0619084 36.4251658,29.8764968 C36.160058,29.6350366 35.9429007,29.4378184 35.9429007,29.4378184 L35.7704168,30.2725372 Z M7.1875,30.2725372 L10.5509368,30.2725372 L10.5509368,17.25 L7.1875,17.25 L7.1875,30.2725372 Z M28.1751729,30.2725372 L23.7663972,30.2725372 L23.7663972,17.2500086 L28.7860247,17.2500086 C30.3062119,17.2500086 31.5386096,18.4824063 31.5386096,20.0025935 C31.5386096,22.3342486 31.5386096,25.6437928 31.5386096,27.8699394 C31.5386096,29.1968584 30.4629136,30.2725372 29.1359946,30.2725372 L28.1751729,30.2725372 Z M14.9492771,30.2725372 L11.9308082,30.2725372 L11.9308082,17.2500086 L16.3782203,17.2500086 L17.1856176,22.9756733 L17.9930149,17.2500086 L22.440427,17.2500086 L22.440427,30.2725372 L19.4219581,30.2725372 L19.4219581,22.1296827 L18.2116383,30.2520116 L18.2145705,30.2725372 L16.1566647,30.2725372 L16.1595969,30.2520116 L14.9492771,22.1296827 L14.9492771,30.2725372 Z M36.9176937,21.7475273 C36.9176937,21.5022551 36.7189059,21.3033811 36.4735475,21.3033811 C36.4734613,21.3033811 36.473375,21.3033811 36.4732888,21.3033811 C36.2280167,21.3033811 36.0291427,21.5022551 36.0291427,21.7475273 C36.0291427,23.030825 36.0291427,26.7339947 36.0291427,28.0173097 C36.0291427,28.2625991 36.2280167,28.4614559 36.4732888,28.4614559 C36.473375,28.4614559 36.4734613,28.4614559 36.4735475,28.4614559 C36.7189059,28.4614559 36.9176937,28.2625991 36.9176937,28.0173097 C36.9176937,26.7339947 36.9176937,23.030825 36.9176937,21.7475273 Z M28.0967789,19.9627497 C28.0967789,19.7029027 27.886176,19.4922998 27.626329,19.4922998 C27.3425929,19.4922998 27.035744,19.4922998 27.035744,19.4922998 L27.035744,27.944004 C27.035744,27.944004 27.3425929,27.944004 27.626329,27.944004 C27.886176,27.944004 28.0967789,27.733358 28.0967789,27.4735196 C28.0967789,25.9934177 28.0967789,21.4428344 28.0967789,19.9627497 Z" id="Page-1"></path>
                        </g>
                    </g>
                </g>
            </g>
        </g>
    </g>
</svg>