<?xml version="1.0" encoding="UTF-8"?>
<svg width="88px" height="72px" viewBox="0 0 88 72" version="1.1" xmlns="http://www.w3.org/2000/svg" xmlns:xlink="http://www.w3.org/1999/xlink">
    <!-- Generator: Sketch 50.2 (55047) - http://www.bohemiancoding.com/sketch -->
    <title>Page 1</title>
    <desc>Created with Sketch.</desc>
    <defs></defs>
    <g id="Home" stroke="none" stroke-width="1" fill="none" fill-rule="evenodd">
        <g id="Home-v3" transform="translate(-160.000000, -1744.000000)" fill="#FEFEFE">
            <g id="Group-5-Copy-2" transform="translate(0.000000, 1698.000000)">
                <g id="Page-1" transform="translate(160.000000, 46.000000)">
                    <path d="M8.27292532,23.9455795 C7.21709486,24.0682184 6.21497766,23.9835784 5.26683899,23.6916594 C4.31870032,23.3997404 3.47812081,22.948144 2.74523309,22.3367328 C2.01234537,21.7253217 1.40982838,20.9730268 0.937947359,20.0799852 C0.466066341,19.1869436 0.172301177,18.2085761 0.0566518658,17.1447455 L0.0520099783,17.1022197 C-0.0635067071,16.0385262 0.0134159996,15.0205137 0.282645473,14.0484564 C0.552007572,13.0765364 0.977602341,12.201191 1.5595624,11.4225575 C2.14152247,10.6440612 2.86990093,9.99917817 3.74469778,9.48818279 C4.61949463,8.97718741 5.61219542,8.65714655 6.72293278,8.5280602 C7.39481283,8.4500048 8.01470375,8.43532654 8.58234028,8.48429979 C9.1499768,8.53327304 9.6709292,8.63067082 10.1449322,8.7766303 C10.6190679,8.92258979 11.0634954,9.11519046 11.4782149,9.35415796 C11.893067,9.59326264 12.2833835,9.86378154 12.6495621,10.165989 L10.8949286,12.8043713 C10.2757008,12.3448184 9.65859504,12.0000852 9.04347864,11.7700344 C8.42822961,11.5398464 7.75741056,11.4670038 7.03062361,11.5515067 C6.42717823,11.6216056 5.88155752,11.8072101 5.39349621,12.1080458 C4.90556752,12.4088815 4.49946868,12.7936713 4.17546493,13.2621409 C3.85146119,13.7307476 3.61711218,14.25697 3.47228529,14.8412195 C3.32745841,15.4253318 3.28966018,16.0364685 3.35902324,16.6747669 L3.36366513,16.7172927 C3.43289556,17.3555911 3.60132977,17.9464252 3.86856986,18.489795 C4.13594258,19.0333021 4.47440249,19.4965588 4.88394959,19.8798396 C5.29362931,20.2631205 5.76895859,20.5490035 6.31020267,20.7374888 C6.85131412,20.9258369 7.43048906,20.9842756 8.04759484,20.9125304 C8.87026992,20.816916 9.54917912,20.5800062 10.0844551,20.201801 C10.6195984,19.8235959 11.1389593,19.3323544 11.6426704,18.7280766 L13.8872219,20.6000345 C13.5616267,21.0543745 13.2177291,21.4678349 12.8555293,21.8402785 C12.4933294,22.2127222 12.0884242,22.5433259 11.640681,22.8323641 C11.1930704,23.1214023 10.6946643,23.3588608 10.1455954,23.5447396 C9.59639375,23.7306185 8.97225882,23.8642318 8.27292532,23.9455795 Z M18.339853,7.32869575 L21.2606612,6.98917533 L29.0606237,21.2709817 L25.7491012,21.6557715 L24.0697989,18.4686693 L17.9814993,19.1762436 L17.027923,22.6693943 L13.7987608,23.0447187 L18.339853,7.32869575 Z M34.9869877,20.7975736 C33.8899108,20.9250138 32.7923033,20.8551892 31.6941654,20.5878255 C30.5958948,20.3204617 29.5709661,19.8327869 28.6192465,19.1248011 L30.239,16.5882063 C30.9572989,17.0649067 31.6803723,17.4261016 32.4083529,17.6717909 C33.1362009,17.9176174 33.9115287,17.9926548 34.7343364,17.8970404 C35.3925561,17.820494 35.8899012,17.6369472 36.2262391,17.3465372 C36.5627096,17.0561272 36.707006,16.6910913 36.6592608,16.2514295 L36.654619,16.2087665 C36.6315421,15.9961376 36.5733196,15.8125908 36.4802166,15.6581262 C36.3871136,15.5037987 36.2265043,15.3681277 35.9986539,15.250976 C35.770671,15.1338243 35.4604603,15.0262752 35.0678892,14.9283287 C34.6754508,14.8302451 34.1690872,14.7383345 33.5486657,14.6524598 C32.801985,14.5524556 32.1213517,14.4233693 31.5071636,14.2649264 C30.892843,14.1064836 30.3619437,13.8846635 29.9143331,13.5990549 C29.4667225,13.3135833 29.1027985,12.9357897 28.8226938,12.465674 C28.5424564,11.9955582 28.3623512,11.391692 28.2822455,10.6542125 L28.2776036,10.6116867 C28.2035986,9.93086254 28.2603623,9.30312701 28.4478945,8.72834295 C28.6354268,8.15355889 28.9303856,7.64174044 29.3329035,7.1927504 C29.7354215,6.74389755 30.233695,6.3772155 30.8275913,6.09270425 C31.4214876,5.808193 32.0887258,5.62300004 32.8291732,5.53685102 C33.8850036,5.41421213 34.8729299,5.46455718 35.7928194,5.68802335 C36.7127089,5.91135233 37.5760999,6.28503056 38.3827274,6.80878368 L37.005413,9.46801733 C36.3116498,9.08898909 35.6418917,8.80420347 34.9964041,8.61352332 C34.3507839,8.42284317 33.7194872,8.36344424 33.1023814,8.43505218 C32.4854083,8.50679731 32.0360736,8.68471972 31.7545099,8.96881944 C31.4729463,9.25278197 31.3521246,9.57927029 31.3921774,9.94801004 L31.3968193,9.99053583 C31.4230792,10.2316982 31.4903202,10.4356848 31.5986751,10.6026328 C31.7071627,10.7695809 31.8855438,10.9104647 32.1340837,11.0251471 C32.3826236,11.1399668 32.7160438,11.2376389 33.1344768,11.3181635 C33.5527771,11.3988254 34.0798303,11.4884039 34.715371,11.5868991 C35.4636433,11.7010328 36.1357886,11.84905 36.7319395,12.0310878 C37.3279579,12.2132628 37.840157,12.4552483 38.2688022,12.7573186 C38.6973147,13.0593889 39.0364377,13.4329299 39.2861713,13.8778046 C39.5357722,14.3228164 39.6961163,14.8715362 39.7669382,15.5239642 L39.7715801,15.5664899 C39.8516858,16.3039694 39.7926675,16.975191 39.5945252,17.5798803 C39.396383,18.1845696 39.0853765,18.7090086 38.6616385,19.1531974 C38.2377678,19.5975233 37.7146934,19.9598156 37.0925479,20.2404858 C36.4704023,20.5210188 35.768549,20.7067605 34.9869877,20.7975736 Z M43.8350884,7.532408 L39.4539424,8.04162004 L39.1258272,5.02050563 L51.0556107,3.63389052 L51.3837258,6.65500493 L47.0027124,7.16421697 L48.2923614,19.0356341 L45.1247373,19.4038252 L43.8350884,7.532408 Z M52.5981762,3.45459631 L55.7658002,3.08654246 L57.3836969,17.979074 L54.2160729,18.3471279 L52.5981762,3.45459631 Z M57.7199022,2.85937243 L60.6405778,2.51985201 L68.3832461,10.905389 L67.387097,1.73573132 L70.5136072,1.37247877 L72.1313713,16.2648732 L69.4369546,16.578055 L61.4356668,7.92117603 L62.4641764,17.3885143 L59.3376663,17.751904 L57.7199022,2.85937243 Z M22.6241825,15.7066879 L20.1866611,11.0996359 L18.7984715,16.1514253 L22.6241825,15.7066879 Z M81.106527,15.4803409 C79.9821293,15.6109363 78.9362457,15.5386424 77.9691416,15.2633222 C77.0019049,14.9878648 76.1488586,14.5484774 75.4097375,13.9450227 C74.670749,13.3414309 74.0653142,12.5932513 73.5934332,11.7000726 C73.1214196,10.807031 72.8253998,9.80740057 72.7052412,8.70104414 L72.7005993,8.65851835 C72.5850826,7.59468771 72.665321,6.57640081 72.941447,5.60365767 C73.2177056,4.63077734 73.6535125,3.75433453 74.249133,2.97405488 C74.8448861,2.19391241 75.5800284,1.54834349 76.4548253,1.03734811 C77.3297548,0.526352733 78.315559,0.20713495 79.412636,0.0795575811 C80.0570626,0.00465731922 80.6483064,-0.0172914755 81.1862349,0.0134368371 C81.7241633,0.0443023297 82.2286702,0.118516692 82.6996228,0.236079923 C83.1707081,0.353780335 83.6188492,0.517024496 84.0443113,0.726223945 C84.4696408,0.935286215 84.8851561,1.18138708 85.290857,1.46452653 L83.5660643,4.18562835 C83.2656678,3.9764289 82.9683218,3.79548852 82.6740261,3.6429444 C82.3797305,3.49053746 82.078273,3.36748703 81.7696538,3.27420465 C81.460902,3.18078509 81.131328,3.11850539 80.7807992,3.08750271 C80.4302703,3.05636286 80.0493703,3.06473084 79.6379665,3.11260665 C79.0621072,3.17955047 78.5373086,3.36625241 78.0638361,3.67257527 C77.590231,3.97889814 77.1875804,4.36327641 76.856017,4.82543572 C76.524321,5.2877322 76.2826776,5.81134814 76.1310868,6.39628352 C75.9793634,6.9812189 75.9381169,7.59276719 76.00748,8.23106557 L76.0121218,8.27359136 C76.0861268,8.95441554 76.2605291,9.56966769 76.5354615,10.1193478 C76.8103939,10.6691651 77.166493,11.134068 77.6034935,11.5140565 C78.040494,11.8941822 78.5357171,12.1705999 79.0890301,12.3431723 C79.6423431,12.5158818 80.2412792,12.5647179 80.8858384,12.4898176 C82.0650105,12.3527749 83.0268096,11.9394516 83.7712357,11.2497107 L83.5400697,9.12218664 L80.3518888,9.49270973 L80.0444632,6.66309855 L86.2973509,5.93631909 L87,12.403943 C86.3303746,13.1425199 85.5098215,13.8015325 84.5383408,14.381255 C83.56686,14.9609776 82.4229663,15.3272481 81.106527,15.4803409 Z" id="Fill-1"></path>
                    <path d="M85.7189148,24 C86.9780578,24.0001327 88,25.0143265 88,26.2634938 L88,69.7365062 C88,70.9858062 86.9777904,72 85.7189148,72 L3.28108517,72 C2.02207591,72 1,70.9858062 1,69.7365062 L1,26.2634938 C1,25.0143265 2.0219422,24.0001327 3.28108517,24 L85.7189148,24 Z M64.0798938,64.2322093 C63.2704161,64.2322093 62.5188346,64.0825481 61.8251494,63.7833583 C61.1313305,63.4843011 60.5321779,63.0755189 60.027558,62.557277 C59.5230718,62.0391678 59.128896,61.4273876 58.8450306,60.7222018 C58.5612989,60.017016 58.4192994,59.2638006 58.4192994,58.462423 L58.4192994,58.4303148 C58.4192994,57.6289372 58.5612989,56.8783754 58.8450306,56.1784967 C59.128896,55.478618 59.5230718,54.864317 60.027558,54.3353281 C60.5321779,53.8064719 61.1365451,53.389729 61.8409271,53.0852321 C62.5451754,52.7807351 63.3229639,52.6285529 64.1744264,52.6285529 C64.6894757,52.6285529 65.1598659,52.6712754 65.5855972,52.7567203 C66.0113284,52.8421652 66.3976154,52.9597183 66.7445917,53.1092469 C67.0914343,53.2589081 67.4120698,53.4405449 67.7063646,53.6542898 C68.0006593,53.8679021 68.2739617,54.1030082 68.5262716,54.3594756 L66.9811239,56.170536 C66.5500443,55.7751543 66.1112095,55.4653502 65.6644858,55.2408583 C65.2177622,55.0164991 64.7158165,54.9043859 64.1586487,54.9043859 C63.6961473,54.9043859 63.2678756,54.9951379 62.8736998,55.1767746 C62.4793903,55.3584114 62.1404365,55.6095716 61.8567048,55.9301227 C61.5728394,56.2506738 61.3520849,56.621908 61.1944414,57.043958 C61.0367978,57.4660081 60.9579092,57.9175127 60.9579092,58.3983393 L60.9579092,58.4303148 C60.9579092,58.9111414 61.0367978,59.3652996 61.1944414,59.7926568 C61.3520849,60.220014 61.5701652,60.5940344 61.848816,60.9145855 C62.127333,61.2351366 62.4637463,61.4888177 62.8579221,61.6758943 C63.2520979,61.8628382 63.685718,61.9563764 64.1586487,61.9563764 C64.7893567,61.9563764 65.3228579,61.8388234 65.7590185,61.6037172 C66.1953128,61.3686111 66.6289329,61.04806 67.0598788,60.642064 L68.6051603,62.2287652 C68.3212949,62.5385693 68.0270001,62.8163979 67.7221423,63.0622511 C67.4172845,63.3079715 67.0835454,63.5189302 66.7209251,63.6952598 C66.3583047,63.8715894 65.9614548,64.0050639 65.5305088,64.0959486 C65.0994292,64.1867006 64.6159354,64.2322093 64.0798938,64.2322093 Z M20.1990889,64.0398256 L15.4688457,52.7406662 L13.229879,52.7406662 L8.49963576,64.0398256 L10.9751346,64.0398256 L11.9842407,61.5235794 L16.6513731,61.5235794 L17.6604791,64.0398256 L20.1990889,64.0398256 Z M54.5089632,64.0398256 L56.9371288,64.0398256 L56.9371288,52.820804 L54.5089632,52.820804 L54.5089632,64.0398256 Z M42.3365792,55.0164991 L42.3365792,52.820804 L34.0112869,52.820804 L34.0112869,64.0398256 L42.4153342,64.0398256 L42.4153342,61.8441305 L36.4238086,61.8441305 L36.4238086,59.4881598 L41.6269826,59.4881598 L41.6269826,57.2924647 L36.4238086,57.2924647 L36.4238086,55.0164991 L42.3365792,55.0164991 Z M53.3264358,64.0398256 L50.6301824,60.0330701 C51.3345644,59.7659884 51.904702,59.346592 52.3409963,58.7748807 C52.7771569,58.203302 52.9953709,57.4633545 52.9953709,56.5551707 L52.9953709,56.5230625 C52.9953709,55.4546033 52.67995,54.5998889 52.049242,53.9587868 C51.3030089,53.2001316 50.2307919,52.820804 48.8327247,52.820804 L43.7871943,52.820804 L43.7871943,64.0398256 L46.21536,64.0398256 L46.21536,60.449813 L48.1232618,60.449813 L50.4883166,64.0398256 L53.3264358,64.0398256 Z M32.1507183,64.0398256 L32.1507183,52.820804 L29.5333536,52.820804 L26.6321235,57.5648535 L23.7310271,52.820804 L21.1135286,52.820804 L21.1135286,64.0398256 L23.4944949,64.0398256 L23.4944949,56.7634758 L26.5691463,61.5075254 L26.6321235,61.5075254 L29.7383304,56.7154463 L29.7383304,64.0398256 L32.1507183,64.0398256 Z M80.5095902,64.0398256 L75.7793469,52.7406662 L73.5403803,52.7406662 L68.810137,64.0398256 L71.2856359,64.0398256 L72.294742,61.5235794 L76.9618743,61.5235794 L77.9709804,64.0398256 L80.5095902,64.0398256 Z M15.7841328,59.3439384 L14.31774,55.7057635 L12.8514809,59.3439384 L15.7841328,59.3439384 Z M76.0946341,59.3439384 L74.6282413,55.7057635 L73.1618485,59.3439384 L76.0946341,59.3439384 Z M48.627748,55.0486073 C49.2270342,55.0486073 49.6947503,55.1822145 50.0310298,55.4492961 C50.3674431,55.7163778 50.5356497,56.1170666 50.5356497,56.6513626 L50.5356497,56.6833381 C50.5356497,57.1641647 50.375332,57.5487994 50.0546964,57.837375 C49.7340609,58.1258178 49.2742337,58.2700393 48.6750811,58.2700393 L46.21536,58.2700393 L46.21536,55.0486073 L48.627748,55.0486073 Z M16.62423,48.4416201 C15.4612242,48.4416201 14.3812521,48.2266811 13.3843136,47.7966703 C12.3873751,47.3667923 11.5264192,46.7795576 10.8014459,46.0349663 C10.0763389,45.2902423 9.50994523,44.4112478 9.10213105,43.3979827 C8.69431688,42.3847177 8.4904098,41.3021944 8.4904098,40.1506785 L8.4904098,40.104639 C8.4904098,38.9531231 8.69431688,37.8745802 9.10213105,36.8690105 C9.50994523,35.8633081 10.0763389,34.9804659 10.8014459,34.2204839 C11.5264192,33.4605019 12.3949965,32.8617242 13.4069105,32.4241508 C14.4189582,31.9865774 15.5366364,31.7677907 16.7602126,31.7677907 C17.5002951,31.7677907 18.1761969,31.8292208 18.7879182,31.952081 C19.3996394,32.0748085 19.9548016,32.2437081 20.4532708,32.4586472 C20.9517401,32.6735862 21.4123695,32.9346973 21.8352929,33.2417152 C22.2582162,33.5487331 22.6509212,33.8865323 23.0134078,34.2549803 L20.7930268,36.8574674 C20.1738178,36.2893385 19.5432435,35.8440697 18.9013039,35.5216611 C18.2592306,35.1992526 17.5380012,35.0380483 16.737482,35.0380483 C16.0729455,35.0380483 15.4573466,35.1686039 14.8909529,35.4295823 C14.3245592,35.6905608 13.8374553,36.0513134 13.4296411,36.5119728 C13.0218269,36.9726323 12.7045341,37.5061322 12.4780301,38.1126053 C12.2513924,38.7190783 12.1381404,39.3677431 12.1381404,40.0585996 L12.1381404,40.104639 C12.1381404,40.7956282 12.2513924,41.4481407 12.4780301,42.0621764 C12.7045341,42.6763448 13.0179494,43.2136924 13.4182758,43.6743519 C13.8186022,44.1350113 14.3018286,44.4996116 14.868356,44.7682854 C15.4347497,45.0369592 16.0578363,45.1713625 16.737482,45.1713625 C17.6437654,45.1713625 18.4103224,45.0024628 19.0371528,44.6646636 C19.6639833,44.3268643 20.2870698,43.8662049 20.9064125,43.2828179 L23.1267936,45.5627638 C22.7189794,46.0080326 22.296056,46.4072619 21.8580235,46.7603192 C21.419991,47.1135092 20.9403748,47.4166793 20.4193086,47.6700951 C19.8981087,47.9233782 19.3279711,48.1153639 18.7086284,48.2457868 C18.0894194,48.3763423 17.3945308,48.4416201 16.62423,48.4416201 Z M72.9718472,48.395448 C71.7635139,48.395448 70.5777775,48.1843567 69.4147717,47.7621739 C68.2516322,47.3399912 67.1943907,46.6913264 66.2427797,45.8161796 L68.3045812,43.3059039 C69.0295544,43.9046816 69.7735144,44.3805991 70.5361938,44.733789 C71.2990069,45.0868463 72.1334883,45.2634413 73.0397717,45.2634413 C73.7648786,45.2634413 74.3275285,45.1290381 74.7277212,44.8603643 C75.1280477,44.5916905 75.3282109,44.2193948 75.3282109,43.7434773 L75.3282109,43.6974379 C75.3282109,43.4671082 75.2866272,43.2635795 75.2035936,43.0871172 C75.1204262,42.9105222 74.9618467,42.7454703 74.7277212,42.5919613 C74.4935958,42.4384524 74.168949,42.2848108 73.7535133,42.1313019 C73.3380777,41.9777929 72.7981585,41.8165887 72.1334883,41.647689 C71.3329691,41.4481407 70.6079958,41.2255063 69.9584348,40.9797859 C69.3090074,40.7341981 68.7577229,40.4308953 68.3045812,40.0701427 C67.8514395,39.70939 67.5001844,39.2602736 67.2509498,38.722926 C67.0017152,38.1854457 66.8770979,37.5176753 66.8770979,36.7192165 L66.8770979,36.6731771 C66.8770979,35.9362812 67.0130805,35.2722257 67.2850457,34.6811434 C67.5568773,34.0899283 67.938217,33.5795145 68.4291985,33.1496364 C68.9200463,32.7196256 69.5052931,32.3896544 70.1850725,32.1593247 C70.8647182,31.9289949 71.6124221,31.8138301 72.4280504,31.8138301 C73.5911899,31.8138301 74.6597968,31.990425 75.6340046,32.3434823 C76.6083462,32.6966723 77.5032644,33.2033711 78.3188927,33.8635789 L76.5063258,36.5350589 C75.7964618,36.0437507 75.1015732,35.6560644 74.4219274,35.3719999 C73.742148,35.0879354 73.0625023,34.9459695 72.3827229,34.9459695 C71.7030772,34.9459695 71.1932426,35.08024 70.8534866,35.3489138 C70.5135969,35.6175876 70.343652,35.9515392 70.343652,36.3507686 L70.343652,36.396808 C70.343652,36.6577864 70.3927234,36.8842685 70.4908663,37.0762542 C70.5891428,37.2681071 70.7665754,37.4408544 71.0234314,37.5943634 C71.2801538,37.7478723 71.6312751,37.8938186 72.0769291,38.0319368 C72.5224494,38.1701877 73.0850992,38.331392 73.7648786,38.5155496 C74.5653978,38.7304887 75.2791395,38.9723614 75.9059699,39.2410352 C76.5328003,39.509709 77.0613542,39.8321176 77.491899,40.2082609 C77.9224438,40.5845369 78.2470907,41.0258253 78.4661069,41.5325242 C78.6851232,42.0392231 78.7946313,42.6456961 78.7946313,43.3519433 L78.7946313,43.3979827 C78.7946313,44.1963088 78.651161,44.9064037 78.3642202,45.5282674 C78.0771458,46.1501312 77.6769531,46.6720881 77.1633746,47.0942708 C76.6497962,47.5165862 76.038075,47.8389947 75.3282109,48.0616291 C74.6182131,48.2842635 73.8328031,48.395448 72.9718472,48.395448 Z M45.0359079,44.9410327 L45.0359079,32.0441598 L41.5467569,32.0441598 L41.5467569,48.165251 L52.9432242,48.165251 L52.9432242,44.9410327 L45.0359079,44.9410327 Z M57.9276493,44.9410327 L57.9276493,32.0441598 L54.4384982,32.0441598 L54.4384982,48.165251 L65.8349655,48.165251 L65.8349655,44.9410327 L57.9276493,44.9410327 Z M40.2326593,48.165251 L33.4356673,31.9289949 L30.2183477,31.9289949 L23.421222,48.165251 L26.9784313,48.165251 L28.4285115,44.5494987 L35.1348484,44.5494987 L36.5849286,48.165251 L40.2326593,48.165251 Z M33.888809,41.4173593 L31.7816799,36.1895643 L29.6745509,41.4173593 L33.888809,41.4173593 Z" id="Fill-2"></path>
                </g>
            </g>
        </g>
    </g>
</svg>