<svg width="671" height="671" viewBox="0 0 671 671" xmlns="http://www.w3.org/2000/svg">
  <path d="M335.5 671C150.208 671 0 520.792 0 335.5S150.208 0 335.5 0 671 150.208 671 335.5 520.792 671 335.5 671zm0-473.67c38.384 0 69.5-31.19 69.5-69.665C405 89.19 373.884 58 335.5 58S266 89.19 266 127.665c0 38.475 31.116 69.666 69.5 69.666zm0 415.67c38.384 0 69.5-31.19 69.5-69.665 0-38.475-31.116-69.666-69.5-69.666S266 504.86 266 543.335C266 581.81 297.116 613 335.5 613zm119.658-345.585c19.192 33.242 61.762 44.594 95.082 25.356 33.32-19.237 44.774-61.78 25.582-95.021s-61.761-44.594-95.082-25.356c-33.32 19.237-44.774 61.78-25.582 95.021zM95.178 475.25c19.192 33.241 61.761 44.594 95.082 25.356 33.32-19.237 44.774-61.78 25.582-95.021-19.192-33.242-61.762-44.594-95.082-25.356-33.32 19.237-44.774 61.78-25.582 95.021zm359.98-69.665c-19.192 33.241-7.738 75.784 25.582 95.021 33.32 19.238 75.89 7.885 95.082-25.356 19.192-33.241 7.739-75.784-25.582-95.021-33.32-19.238-75.89-7.886-95.082 25.356zM95.178 197.75c-19.192 33.241-7.739 75.784 25.582 95.021 33.32 19.238 75.89 7.886 95.082-25.356 19.192-33.241 7.738-75.784-25.582-95.021-33.32-19.238-75.89-7.885-95.082 25.356z" fill="#FBFBFB" fill-rule="evenodd"/>
</svg>