<?xml version="1.0" encoding="UTF-8"?>
<svg width="56px" height="52px" viewBox="0 0 56 52" version="1.1" xmlns="http://www.w3.org/2000/svg" xmlns:xlink="http://www.w3.org/1999/xlink">
    <!-- Generator: Sketch 50.2 (55047) - http://www.bohemiancoding.com/sketch -->
    <title>Fill 9</title>
    <desc>Created with Sketch.</desc>
    <defs></defs>
    <g id="Admin" stroke="none" stroke-width="1" fill="none" fill-rule="evenodd">
        <g id="navigation-and-signup" transform="translate(-356.000000, -327.000000)" fill="#06205C">
            <g id="Group-16" transform="translate(109.000000, 317.000000)">
                <path d="M300.977263,62 L249.771478,62 C248.98328,62 248.343997,61.3607174 248.343997,60.5725195 L248.343997,33.1578247 C248.343997,32.3696268 248.98328,31.7303442 249.771478,31.7303442 L300.977263,31.7303442 C301.764709,31.7303442 302.403992,32.3696268 302.403992,33.1578247 L302.403992,60.5725195 C302.403992,61.3607174 301.764709,62 300.977263,62 Z M296.007405,57.4437952 C296.666242,57.3888921 296.655713,56.4638126 296.100665,56.3231704 C296.069829,56.3209141 296.038993,56.3179057 296.007405,56.3156494 L254.619496,56.3156494 C253.899739,56.3750651 254.026844,57.3949089 254.619496,57.4437952 L296.007405,57.4437952 Z M263.207694,49.6212323 L263.207694,47.3679491 C262.081053,48.1704368 260.940121,48.5788256 259.812728,48.5788256 C258.039282,48.5788256 256.939716,47.3965288 256.939716,45.6215794 C256.939716,43.7774371 258.094185,42.6507955 259.990975,42.6507955 C261.03639,42.6507955 262.081053,42.9884871 263.125716,43.6789124 L263.125716,41.4256292 C262.081053,40.9044258 261.008562,40.6366792 259.839803,40.6366792 C256.581718,40.6366792 254.52022,42.6929129 254.52022,45.6215794 C254.52022,47.058085 255.042175,48.3253688 255.977032,49.2406711 C256.884813,50.1138559 258.122013,50.5929419 259.620191,50.5929419 C260.925831,50.5929419 262.09459,50.268788 263.207694,49.6212323 Z M289.258837,49.6633497 C290.262135,50.2830778 291.348163,50.5929419 292.516922,50.5929419 C294.880763,50.5929419 296.228522,49.4805901 296.228522,47.7342204 C296.228522,46.6639861 295.81562,45.8472086 294.991322,45.3260052 C294.289615,44.8897888 293.492392,44.6220422 292.653804,44.2978883 C291.801678,43.9744865 291.389528,43.6225051 291.389528,43.227654 C291.389528,42.7350304 291.856581,42.453746 292.764362,42.453746 C293.630026,42.453746 294.633323,42.7914377 295.82991,43.4111658 L295.82991,41.4391669 C294.75742,40.9044258 293.671391,40.650969 292.640266,40.650969 C290.481747,40.650969 289.093376,41.8197281 289.093376,43.4247035 C289.093376,45.1710732 290.248597,45.9735609 292.61319,46.8189181 C293.437489,47.1144923 293.863928,47.298004 293.863928,47.8748626 C293.863928,48.4381834 293.382586,48.7337576 292.461267,48.7337576 C291.403066,48.7337576 290.441134,48.2689615 289.258837,47.5228811 L289.258837,49.6633497 Z M276.85901,40.8059011 L274.507955,40.8059011 L274.507955,50.42372 L280.900781,50.42372 L280.900781,48.5652878 L276.85901,48.5652878 L276.85901,40.8059011 Z M284.310037,40.8059011 L281.958982,40.8059011 L281.958982,50.42372 L288.351056,50.42372 L288.351056,48.5652878 L284.310037,48.5652878 L284.310037,40.8059011 Z M270.205207,40.8059011 L267.496905,40.8059011 L263.400231,50.42372 L265.902459,50.42372 L266.658316,48.550998 L270.700087,48.550998 L271.373966,50.42372 L273.861903,50.42372 L270.205207,40.8059011 Z M270.108938,46.903153 L268.789008,43.2419439 L267.332195,46.903153 L270.108938,46.903153 Z M259.662308,28.9754122 L259.130575,26.0399769 C257.815157,27.3584032 256.389181,28.1661556 254.884235,28.4391669 C252.517385,28.8678623 250.771015,27.5930576 250.352097,25.2811108 C249.915881,22.8774082 251.191437,21.1302864 253.722997,20.6715071 C255.117385,20.4188024 256.591495,20.6068267 258.149089,21.2528782 L257.617356,18.3174429 C256.099624,17.8910038 254.605207,17.8022563 253.046109,18.0850448 C248.697483,18.8724906 246.431414,22.0501012 247.122592,25.8662424 C247.461787,27.7374602 248.458316,29.2627133 249.921897,30.2291582 C251.338848,31.1474689 253.103269,31.4716228 255.103095,31.1091119 C256.845704,30.7932311 258.32884,30.0885161 259.662308,28.9754122 Z M261.777958,29.6726063 L264.915707,29.1040208 L263.99138,24.0032977 C264.119988,23.9799826 264.226786,23.9416257 264.354643,23.9183107 C265.584321,23.6956899 266.20405,23.9814868 266.902748,25.0103558 L269.153775,28.3353775 L272.694648,27.6938386 L269.917153,23.7633787 C269.403471,23.0225629 268.811571,22.5803298 268.145212,22.4547295 C269.526063,21.5033266 270.029216,20.407521 269.77952,19.0319352 C269.323749,16.5184264 267.488632,15.69488 264.130518,16.3033266 L259.507376,17.1411629 L261.777958,29.6726063 Z M273.68516,27.5148395 L282.216951,25.9685276 L281.791264,23.6197281 L276.397223,24.5974544 L275.854961,21.607116 L280.863928,20.6993347 L280.438241,18.3512872 L275.430026,19.2583165 L274.977263,16.7636101 L280.224645,15.8122071 L279.798958,13.4641597 L271.414579,14.983396 L273.68516,27.5148395 Z M287.868961,25.0577379 L289.153543,24.8253399 L290.578015,16.4755568 L294.822852,23.7979751 L296.125484,23.5618166 L298.917269,10 L295.632861,10.5949089 L294.451316,17.877466 L290.752502,11.4793752 L288.66092,11.8584322 L287.435753,19.1101533 L283.762511,12.7459069 L280.496153,13.3378073 L287.868961,25.0577379 Z M265.080416,21.437142 L263.57547,21.7101533 L263.046746,18.7927683 L264.551692,18.519757 C265.688863,18.3136824 266.372519,18.7393694 266.538733,19.656928 C266.718484,20.64744 266.25444,21.2242985 265.080416,21.437142 Z" id="Fill-9"></path>
            </g>
        </g>
    </g>
</svg>