<?xml version="1.0" encoding="UTF-8"?>
<svg width="69px" height="65px" viewBox="0 0 69 65" version="1.1" xmlns="http://www.w3.org/2000/svg" xmlns:xlink="http://www.w3.org/1999/xlink">
    <!-- Generator: Sketch 50.2 (55047) - http://www.bohemiancoding.com/sketch -->
    <title>Group</title>
    <desc>Created with Sketch.</desc>
    <defs></defs>
    <g id="Home" stroke="none" stroke-width="1" fill="none" fill-rule="evenodd">
        <g id="Home-v3" transform="translate(-296.000000, -13.000000)" fill="#FFFFFF">
            <g id="Group" transform="translate(296.000000, 13.000000)">
                <path d="M66.6426429,65 L3.42178571,65 C2.44864286,65 1.65935714,64.2107143 1.65935714,63.2375714 L1.65935714,29.3902143 C1.65935714,28.4170714 2.44864286,27.6277857 3.42178571,27.6277857 L66.6426429,27.6277857 C67.6148571,27.6277857 68.4041429,28.4170714 68.4041429,29.3902143 L68.4041429,63.2375714 C68.4041429,64.2107143 67.6148571,65 66.6426429,65 Z M60.5066429,59.3747143 C61.3200714,59.3069286 61.3070714,58.1647857 60.6217857,57.9911429 C60.5837143,57.9883571 60.5456429,57.9846429 60.5066429,57.9818571 L9.40735714,57.9818571 C8.51871429,58.0552143 8.67564286,59.3143571 9.40735714,59.3747143 L60.5066429,59.3747143 Z M20.0107143,49.7166429 L20.0107143,46.9346429 C18.6197143,47.9254286 17.2110714,48.4296429 15.8191429,48.4296429 C13.6295714,48.4296429 12.272,46.9699286 12.272,44.7785 C12.272,42.5016429 13.6973571,41.1106429 16.0392143,41.1106429 C17.3299286,41.1106429 18.6197143,41.5275714 19.9095,42.38 L19.9095,39.598 C18.6197143,38.9545 17.2955714,38.6239286 15.8525714,38.6239286 C11.83,38.6239286 9.28478571,41.1626429 9.28478571,44.7785 C9.28478571,46.5520714 9.92921429,48.1167143 11.0834286,49.2467857 C12.2042143,50.3248571 13.7317143,50.9163571 15.5814286,50.9163571 C17.1934286,50.9163571 18.6364286,50.5161429 20.0107143,49.7166429 Z M52.1745714,49.7686429 C53.4132857,50.5337857 54.7541429,50.9163571 56.1971429,50.9163571 C59.1156429,50.9163571 60.7796429,49.543 60.7796429,47.3868571 C60.7796429,46.0655 60.2698571,45.0570714 59.2521429,44.4135714 C58.3857857,43.875 57.4015,43.5444286 56.3661429,43.1442143 C55.3140714,42.7449286 54.8052143,42.3103571 54.8052143,41.8228571 C54.8052143,41.2146429 55.3818571,40.8673571 56.5026429,40.8673571 C57.5714286,40.8673571 58.8101429,41.2842857 60.2875,42.0494286 L60.2875,39.6147143 C58.9633571,38.9545 57.6225,38.6415714 56.3494286,38.6415714 C53.6844286,38.6415714 51.9702857,40.0845714 51.9702857,42.0661429 C51.9702857,44.2222857 53.3965714,45.2130714 56.316,46.2567857 C57.3337143,46.6217143 57.8602143,46.8482857 57.8602143,47.5605 C57.8602143,48.256 57.2659286,48.6209286 56.1284286,48.6209286 C54.8219286,48.6209286 53.6342857,48.0470714 52.1745714,47.1259286 L52.1745714,49.7686429 Z M36.8652143,38.8328571 L33.9625,38.8328571 L33.9625,50.7074286 L41.8553571,50.7074286 L41.8553571,48.4129286 L36.8652143,48.4129286 L36.8652143,38.8328571 Z M46.0645714,38.8328571 L43.1618571,38.8328571 L43.1618571,50.7074286 L51.0537857,50.7074286 L51.0537857,48.4129286 L46.0645714,48.4129286 L46.0645714,38.8328571 Z M28.6501429,38.8328571 L25.3063571,38.8328571 L20.2484286,50.7074286 L23.3377857,50.7074286 L24.271,48.3952857 L29.2611429,48.3952857 L30.0931429,50.7074286 L33.1648571,50.7074286 L28.6501429,38.8328571 Z M28.5312857,46.3607857 L26.9016429,41.8405 L25.103,46.3607857 L28.5312857,46.3607857 Z M15.6334286,24.2264286 L14.9769286,20.6022143 C13.3528571,22.23 11.5922857,23.2272857 9.73421429,23.5643571 C6.812,24.0936429 4.65585714,22.5197143 4.13864286,19.6652857 C3.60007143,16.6975714 5.17492857,14.5405 8.3005,13.9740714 C10.0220714,13.6620714 11.8420714,13.8942143 13.7651429,14.6918571 L13.1086429,11.0676429 C11.2347857,10.5411429 9.38971429,10.4315714 7.46478571,10.7807143 C2.09578571,11.7529286 -0.702,15.6761429 0.151357143,20.3877143 C0.570142857,22.698 1.8005,24.5811429 3.6075,25.7743571 C5.35692857,26.9081429 7.53535714,27.3083571 10.0044286,26.8607857 C12.1559286,26.4707857 13.9870714,25.6007143 15.6334286,24.2264286 Z M18.2455,25.0872143 L22.1195,24.3852143 L20.9782857,18.0876429 C21.1370714,18.0588571 21.2689286,18.0115 21.4267857,17.9827143 C22.945,17.7078571 23.7101429,18.0607143 24.5727857,19.331 L27.352,23.4362143 L31.7237143,22.6441429 L28.2945,17.7914286 C27.6602857,16.8767857 26.9295,16.3307857 26.1067857,16.1757143 C27.8116429,15.0010714 28.4328571,13.6481429 28.1245714,11.9497857 C27.5618571,8.8465 25.2961429,7.82971429 21.1500714,8.58092857 L15.4421429,9.61535714 L18.2455,25.0872143 Z M32.9466429,22.4231429 L43.4803571,20.514 L42.9547857,17.6140714 L36.2950714,18.8212143 L35.6255714,15.1292143 L41.8098571,14.0084286 L41.2842857,11.1094286 L35.1009286,12.2292857 L34.5419286,9.14921429 L41.0205714,7.97457143 L40.495,5.07557143 L30.1432857,6.95128571 L32.9466429,22.4231429 Z M50.4585714,19.3895 L52.0445714,19.1025714 L53.8032857,8.79357143 L59.0441429,17.8341429 L60.6524286,17.5425714 L64.0992857,0.798571429 L60.0442143,1.53307143 L58.5854286,10.5244286 L54.0187143,2.62507143 L51.4363571,3.09307143 L49.9237143,12.0463571 L45.3885714,4.18878571 L41.3557857,4.91957143 L50.4585714,19.3895 Z M22.3228571,14.9193571 L20.4647857,15.2564286 L19.812,11.6545 L21.6700714,11.3174286 C23.0740714,11.063 23.9181429,11.5885714 24.1233571,12.7214286 C24.3452857,13.9443571 23.7723571,14.6565714 22.3228571,14.9193571 Z" id="Fill-9"></path>
            </g>
        </g>
    </g>
</svg>