<svg width="63" height="56" xmlns="http://www.w3.org/2000/svg"><path d="M60.73 24.287c.823 0 1.49.667 1.49 1.49v28.615a1.49 1.49 0 0 1-1.49 1.49H3.852a1.49 1.49 0 0 1-1.49-1.49V25.777c0-.823.667-1.49 1.49-1.49H60.73zM49.224 51.018v-1.91c-.913.68-1.838 1.027-2.751 1.027-1.438 0-2.329-1.002-2.329-2.506 0-1.563.936-2.518 2.473-2.518.847 0 1.694.286 2.54.871v-1.91a5.634 5.634 0 0 0-2.662-.668c-2.64 0-4.312 1.743-4.312 4.225 0 1.217.424 2.291 1.181 3.067.736.74 1.738 1.145 2.953 1.145a5.442 5.442 0 0 0 2.907-.823zm-34.157.68l-2.964-8.15H9.91l-3.32 8.15h2.027l.613-1.587h3.276l.545 1.587h2.017zm23.997 0h1.96v-8.15h-1.96v8.15zm-8.634-6.623v-1.527h-5.091v8.15h5.18v-1.527h-3.275v-1.945h3.041v-1.528h-3.041v-1.623h3.186zm7.977 6.623l-1.215-2.792c-.222-.525-.523-.871-.902-1.026.914-.442 1.326-1.074 1.326-1.97 0-1.634-.992-2.362-3.03-2.362h-2.808v8.15h1.905v-3.317c.034 0 .066-.003.098-.005l.027-.002c.032-.003.064-.005.098-.005.746 0 1.08.25 1.381.978l.97 2.351h2.15zm-14.561 0v-8.15h-1.682l-2.451 3.281-2.44-3.281H15.59v8.15h1.882V46.65l2.24 2.984 2.261-2.984v5.048h1.872zm34.012 0l-2.963-8.15H52.7l-3.32 8.15h2.028l.613-1.587h3.275l.546 1.587h2.016zm-45.833-2.983l-1.07-3.103-1.18 3.103h2.25zm42.792 0l-1.07-3.103-1.18 3.103h2.25zm-20.22-3.723c.69 0 1.047.346 1.047.942 0 .645-.334.955-1.047.955h-.914v-1.897h.914zm15.067-5.426a7.125 7.125 0 0 0 3.886 1.138c2.82 0 4.427-1.362 4.427-3.5 0-1.31-.492-2.31-1.476-2.947-.836-.534-1.787-.862-2.787-1.258-1.017-.397-1.509-.828-1.509-1.31 0-.604.558-.949 1.64-.949 1.033 0 2.23.414 3.656 1.173v-2.414c-1.279-.655-2.574-.965-3.804-.965-2.574 0-4.23 1.43-4.23 3.396 0 2.137 1.377 3.12 4.197 4.154.984.362 1.493.586 1.493 1.293 0 .69-.574 1.051-1.673 1.051-1.262 0-2.41-.568-3.82-1.482v2.62zm-32.712-.052v-2.758c-1.345.983-2.706 1.483-4.05 1.483-2.116 0-3.427-1.448-3.427-3.62 0-2.258 1.377-3.637 3.64-3.637 1.246 0 2.492.413 3.738 1.258v-2.758c-1.246-.638-2.525-.965-3.919-.965-3.886 0-6.345 2.516-6.345 6.102 0 1.758.623 3.31 1.738 4.43 1.082 1.069 2.558 1.655 4.345 1.655 1.558 0 2.952-.397 4.28-1.19zm17.102-1.292v-9.498H31.25v11.773h7.624v-2.275h-4.82zm9.297 0v-9.498h-2.804v11.773h7.624v-2.275h-4.82zm-13.282 2.275l-4.361-11.773h-3.23L17.59 40.497h2.984l.902-2.293h4.821l.803 2.293h2.968zm-4.476-4.31l-1.574-4.481-1.738 4.482h3.312zM14.029 20.475l-.537-3.238c-1.468 1.429-3.05 2.294-4.71 2.57-2.611.433-4.512-.999-4.935-3.549-.44-2.651.992-4.552 3.785-5.015 1.538-.256 3.156-.025 4.859.712l-.537-3.238c-1.663-.494-3.305-.617-5.025-.331-4.796.795-7.342 4.253-6.644 8.463.343 2.064 1.414 3.758 3.008 4.845 1.544 1.033 3.48 1.42 5.685 1.054a10.557 10.557 0 0 0 5.05-2.273zm2.316.801l3.46-.574-.932-5.626c.141-.024.26-.064.401-.088 1.356-.224 2.034.1 2.785 1.244l2.422 3.695 3.906-.648-2.992-4.37c-.552-.823-1.196-1.32-1.928-1.469 1.536-1.024 2.107-2.22 1.855-3.738-.46-2.773-2.466-3.709-6.17-3.094l-5.1.845 2.293 13.823zm3.768-9.005l-1.66.275-.534-3.218 1.66-.275c1.255-.208 2 .271 2.168 1.283.18 1.093-.34 1.72-1.634 1.935zm9.367 6.826l9.41-1.56-.43-2.591-5.95.987-.546-3.299 5.525-.916-.43-2.59-5.525.916-.457-2.753 5.788-.96-.43-2.59-9.248 1.534zm15.644-2.47l1.416-.235 1.704-9.162 4.55 8.125 1.437-.238L57.524.243l-3.623.6-1.42 7.993-3.963-7.1-2.307.383-1.467 7.958-3.937-7.061-3.602.597z" fill="#06205C" fill-rule="evenodd"/></svg>